<svg width="20" height="20" viewBox="0 0 20 20" fill="none" xmlns="http://www.w3.org/2000/svg">
<path d="M14.19 0H5.81C2.17 0 0 2.17 0 5.81V14.18C0 17.83 2.17 20 5.81 20H14.18C17.82 20 19.99 17.83 19.99 14.19V5.81C20 2.17 17.83 0 14.19 0ZM9.03 15.66C9.32 15.95 9.32 16.43 9.03 16.72C8.88 16.87 8.69 16.94 8.5 16.94C8.31 16.94 8.12 16.87 7.97 16.72L6.25 15L4.53 16.72C4.38 16.86 4.19 16.94 4 16.94C3.81 16.94 3.62 16.87 3.47 16.72C3.18 16.43 3.18 15.95 3.47 15.66L5.19 13.94L3.47 12.22C3.18 11.93 3.18 11.45 3.47 11.16C3.76 10.87 4.24 10.87 4.53 11.16L6.25 12.88L7.97 11.16C8.26 10.87 8.74 10.87 9.03 11.16C9.32 11.45 9.32 11.93 9.03 12.22L7.31 13.94L9.03 15.66ZM8.5 6.81H4C3.59 6.81 3.25 6.47 3.25 6.06C3.25 5.65 3.59 5.31 4 5.31H8.5C8.91 5.31 9.25 5.65 9.25 6.06C9.25 6.47 8.91 6.81 8.5 6.81ZM16 16.56H11.5C11.09 16.56 10.75 16.22 10.75 15.81C10.75 15.4 11.09 15.06 11.5 15.06H16C16.41 15.06 16.75 15.4 16.75 15.81C16.75 16.22 16.41 16.56 16 16.56ZM16 12.81H11.5C11.09 12.81 10.75 12.47 10.75 12.06C10.75 11.65 11.09 11.31 11.5 11.31H16C16.41 11.31 16.75 11.65 16.75 12.06C16.75 12.47 16.41 12.81 16 12.81ZM16 6.81H14.52V8.31C14.52 8.72 14.18 9.06 13.77 9.06C13.36 9.06 13.02 8.72 13.02 8.31V6.81H11.5C11.09 6.81 10.75 6.47 10.75 6.06C10.75 5.65 11.09 5.31 11.5 5.31H13.02V3.81C13.02 3.4 13.36 3.06 13.77 3.06C14.18 3.06 14.52 3.4 14.52 3.81V5.31H16C16.41 5.31 16.75 5.65 16.75 6.06C16.75 6.47 16.41 6.81 16 6.81Z" fill="#FF5D04"/>
</svg>
