<svg width="12" height="9" viewBox="0 0 12 9" fill="none" xmlns="http://www.w3.org/2000/svg">
<path d="M11.5598 1.24727L4.55977 8.24728C4.51914 8.28795 4.47089 8.32022 4.41778 8.34224C4.36467 8.36426 4.30774 8.37559 4.25024 8.37559C4.19275 8.37559 4.13582 8.36426 4.08271 8.34224C4.0296 8.32022 3.98134 8.28795 3.94071 8.24728L0.878212 5.18477C0.796119 5.10268 0.75 4.99134 0.75 4.87524C0.75 4.75915 0.796119 4.6478 0.878212 4.56571C0.960305 4.48362 1.07165 4.4375 1.18774 4.4375C1.30384 4.4375 1.41518 4.48362 1.49727 4.56571L4.25024 7.31923L10.9407 0.628212C11.0228 0.546119 11.1341 0.5 11.2502 0.5C11.3663 0.5 11.4777 0.546119 11.5598 0.628212C11.6419 0.710305 11.688 0.821647 11.688 0.937743C11.688 1.05384 11.6419 1.16518 11.5598 1.24727Z" fill="#C2C2C2"/>
</svg>
