<svg width="24" height="24" viewBox="0 0 24 24" fill="none" xmlns="http://www.w3.org/2000/svg">
<path d="M21.8943 13.3338C21.7981 13.2374 21.6774 13.169 21.5453 13.136C21.4132 13.1029 21.2745 13.1065 21.1443 13.1463C19.7142 13.5786 18.1936 13.6149 16.7445 13.2512C15.2955 12.8875 13.9722 12.1375 12.9158 11.081C11.8594 10.0246 11.1093 8.70136 10.7456 7.25229C10.3819 5.80323 10.4182 4.28264 10.8505 2.85255C10.8906 2.72224 10.8945 2.58345 10.8616 2.45112C10.8288 2.31879 10.7605 2.19792 10.6641 2.10151C10.5676 2.00509 10.4468 1.93679 10.3144 1.90393C10.1821 1.87108 10.0433 1.87492 9.91302 1.91505C7.93586 2.52071 6.20009 3.73454 4.95271 5.3838C3.86185 6.8321 3.19645 8.5559 3.03127 10.3615C2.86609 12.1671 3.20768 13.9831 4.01765 15.6053C4.82763 17.2274 6.0739 18.5916 7.61646 19.5446C9.15901 20.4975 10.9367 21.0014 12.7499 20.9997C14.8652 21.0063 16.9243 20.3186 18.6111 19.0422C20.2604 17.7949 21.4742 16.0591 22.0799 14.0819C22.1196 13.9521 22.1232 13.8139 22.0905 13.6822C22.0579 13.5504 21.99 13.43 21.8943 13.3338ZM17.7093 17.8441C16.1207 19.0406 14.1534 19.623 12.1695 19.4841C10.1857 19.3452 8.31871 18.4943 6.9124 17.0881C5.50609 15.6819 4.65507 13.815 4.51599 11.8312C4.37692 9.84729 4.95916 7.87995 6.15552 6.2913C6.93496 5.26198 7.94265 4.42759 9.09927 3.8538C9.03338 4.3162 9.00018 4.78266 8.9999 5.24973C9.00263 7.83476 10.0307 10.3131 11.8586 12.141C13.6865 13.9689 16.1649 14.997 18.7499 14.9997C19.2179 14.9996 19.6853 14.9664 20.1486 14.9004C19.5743 16.0572 18.7393 17.0649 17.7093 17.8441Z" fill="black"/>
</svg>
