<svg width="24" height="24" viewBox="0 0 24 24" fill="none" xmlns="http://www.w3.org/2000/svg">
<path d="M21.8948 13.3343C21.7986 13.2379 21.6779 13.1695 21.5458 13.1365C21.4136 13.1034 21.275 13.107 21.1448 13.1468C19.7147 13.5791 18.1941 13.6154 16.745 13.2517C15.2959 12.888 13.9727 12.1379 12.9163 11.0815C11.8598 10.0251 11.1098 8.70185 10.7461 7.25278C10.3824 5.80372 10.4187 4.28312 10.851 2.85304C10.8911 2.72272 10.895 2.58394 10.8621 2.45161C10.8293 2.31928 10.761 2.19841 10.6646 2.10199C10.5681 2.00558 10.4473 1.93728 10.3149 1.90442C10.1826 1.87157 10.0438 1.87541 9.91351 1.91554C7.93635 2.5212 6.20058 3.73503 4.9532 5.38428C3.86233 6.83259 3.19694 8.55638 3.03176 10.362C2.86658 12.1676 3.20817 13.9836 4.01814 15.6057C4.82812 17.2279 6.07439 18.5921 7.61695 19.5451C9.1595 20.498 10.9372 21.0019 12.7504 21.0002C14.8657 21.0067 16.9248 20.3191 18.6116 19.0427C20.2609 17.7953 21.4747 16.0596 22.0804 14.0824C22.12 13.9526 22.1237 13.8144 22.091 13.6827C22.0583 13.5509 21.9905 13.4305 21.8948 13.3343ZM17.7098 17.8446C16.1212 19.0411 14.1539 19.6235 12.17 19.4846C10.1861 19.3457 8.3192 18.4948 6.91289 17.0886C5.50658 15.6824 4.65556 13.8155 4.51648 11.8317C4.37741 9.84778 4.95964 7.88044 6.15601 6.29179C6.93545 5.26247 7.94313 4.42808 9.09976 3.85429C9.03387 4.31668 9.00066 4.78315 9.00038 5.25022C9.00311 7.83525 10.0312 10.3136 11.8591 12.1415C13.687 13.9694 16.1654 14.9975 18.7504 15.0002C19.2184 15.0001 19.6858 14.9669 20.1491 14.9008C19.5748 16.0577 18.7398 17.0654 17.7098 17.8446Z" fill="white"/>
</svg>
