<svg width="26" height="25" viewBox="0 0 26 25" fill="none" xmlns="http://www.w3.org/2000/svg">
<path fill-rule="evenodd" clip-rule="evenodd" d="M13 24.8359C19.7655 24.8359 25.25 19.3514 25.25 12.5859C25.25 5.82045 19.7655 0.335938 13 0.335938C6.23451 0.335938 0.75 5.82045 0.75 12.5859C0.75 18.6237 5.11806 23.6412 10.8665 24.6508V16.3323H7.75V12.8748H10.8665V10.2396C10.8665 7.24226 12.698 5.58594 15.5027 5.58594C16.8452 5.58594 18.25 5.81955 18.25 5.81955V8.76312H16.7014C15.1767 8.76312 14.7021 9.68593 14.7021 10.6321V12.8748H18.1061L17.562 16.3323H14.7021V24.6911C14.1113 24.7816 13.5076 24.8303 12.8931 24.8355C12.9287 24.8358 12.9643 24.8359 13 24.8359Z" fill="#EFEFEF"/>
</svg>
