<svg width="31" height="31" viewBox="0 0 31 31" fill="none" xmlns="http://www.w3.org/2000/svg">
<path d="M18.3984 11.5858V15.7908H22.1684C22.4584 15.7908 22.6034 16.0808 22.6034 16.3708L22.0234 19.1258C22.0234 19.2708 21.7334 19.4158 21.5884 19.4158H18.3984V30.0008H14.0484V19.5608H11.5834C11.2934 19.5608 11.1484 19.4158 11.1484 19.1258V16.3708C11.1484 16.0808 11.2934 15.9358 11.5834 15.9358H14.0484V11.1508C14.0484 8.68578 15.9334 6.80078 18.3984 6.80078H22.3134C22.6034 6.80078 22.7484 6.94578 22.7484 7.23578V10.7158C22.7484 11.0058 22.6034 11.1508 22.3134 11.1508H18.8334C18.5434 11.1508 18.3984 11.2958 18.3984 11.5858Z" stroke="white" stroke-width="1.45" stroke-miterlimit="10" stroke-linecap="round"/>
<path d="M19.85 30H11.15C3.9 30 1 27.1 1 19.85V11.15C1 3.9 3.9 1 11.15 1H19.85C27.1 1 30 3.9 30 11.15V19.85C30 27.1 27.1 30 19.85 30Z" stroke="white" stroke-width="1.45" stroke-linecap="round" stroke-linejoin="round"/>
</svg>
