<svg width="31" height="31" viewBox="0 0 31 31" fill="none" xmlns="http://www.w3.org/2000/svg">
<path d="M11.15 30H19.85C27.1 30 30 27.1 30 19.85V11.15C30 3.9 27.1 1 19.85 1H11.15C3.9 1 1 3.9 1 11.15V19.85C1 27.1 3.9 30 11.15 30Z" stroke="white" stroke-width="1.45" stroke-linecap="round" stroke-linejoin="round"/>
<path d="M13.0002 20.1705C13.0002 20.5738 12.9755 20.7219 12.8767 20.9194C12.7615 21.1416 12.5228 21.3144 12.1607 21.3144C11.7986 21.3144 11.5599 21.1416 11.4447 20.9194C11.346 20.7219 11.3213 20.5738 11.3213 20.1705V13.9816C11.3213 13.5784 11.346 13.4302 11.4447 13.2327C11.5599 13.0105 11.7986 12.8377 12.1607 12.8377C12.5228 12.8377 12.7615 13.0105 12.8767 13.2327C12.9755 13.4302 13.0002 13.5784 13.0002 13.9816V20.1705ZM11.1484 10.8951C11.1484 10.3355 11.6011 9.88281 12.1607 9.88281C12.7203 9.88281 13.173 10.3355 13.173 10.8951C13.173 11.4547 12.7203 11.9074 12.1607 11.9074C11.6011 11.9074 11.1484 11.4547 11.1484 10.8951Z" fill="white"/>
<path d="M16.2124 16.1626V20.1705C16.2124 20.5738 16.1877 20.7219 16.0889 20.9194C15.9737 21.1416 15.735 21.3144 15.3729 21.3144C15.0108 21.3144 14.7721 21.1416 14.6569 20.9194C14.5582 20.7219 14.5335 20.5738 14.5335 20.1705V13.9899C14.5335 13.529 14.5664 13.3809 14.6816 13.1916C14.8215 12.9694 15.0931 12.8377 15.3729 12.8377C15.6445 12.8377 15.8996 12.9447 16.056 13.1669C16.1383 13.2903 16.1877 13.4138 16.2041 13.7183C16.7802 13.1093 17.5703 12.8048 18.4015 12.8048C19.2574 12.8048 19.9652 13.0846 20.459 13.5619C21.1009 14.1874 21.2984 14.9775 21.2984 15.9157V20.1705C21.2984 20.5738 21.2737 20.7219 21.175 20.9194C21.0598 21.1416 20.8211 21.3144 20.459 21.3144C20.0969 21.3144 19.8582 21.1416 19.743 20.9194C19.6442 20.7219 19.6195 20.5738 19.6195 20.1705V16.1626C19.6195 14.8622 18.8788 14.3191 17.9406 14.3191C17.0024 14.3191 16.2124 14.8787 16.2124 16.1626Z" fill="white"/>
</svg>
