<svg width="24" height="23" viewBox="0 0 24 23" fill="none" xmlns="http://www.w3.org/2000/svg">
<path d="M18.1868 0.210938H5.81317C4.43718 0.210938 3.11755 0.757546 2.14458 1.73052C1.17161 2.70349 0.625 4.02312 0.625 5.3991V17.7728C0.625 19.1488 1.17161 20.4684 2.14458 21.4414C3.11755 22.4143 4.43718 22.9609 5.81317 22.9609H18.1868C19.5628 22.9609 20.8825 22.4143 21.8554 21.4414C22.8284 20.4684 23.375 19.1488 23.375 17.7728V5.3991C23.375 4.02312 22.8284 2.70349 21.8554 1.73052C20.8825 0.757546 19.5628 0.210938 18.1868 0.210938ZM8.31683 18.5766C8.32049 18.6401 8.31113 18.7037 8.28932 18.7634C8.26751 18.8232 8.23372 18.8779 8.19001 18.9241C8.14631 18.9703 8.09362 19.0071 8.03517 19.0322C7.97673 19.0573 7.91377 19.0702 7.85017 19.0701H5.7735C5.64827 19.0671 5.52923 19.015 5.44197 18.9251C5.3547 18.8352 5.30618 18.7147 5.30683 18.5894V9.9526C5.30512 9.89025 5.31592 9.82818 5.3386 9.77007C5.36129 9.71197 5.39539 9.659 5.4389 9.61429C5.4824 9.56959 5.53443 9.53406 5.5919 9.50981C5.64937 9.48556 5.71112 9.47308 5.7735 9.4731H7.85017C7.91254 9.47308 7.9743 9.48556 8.03177 9.50981C8.08924 9.53406 8.14126 9.56959 8.18477 9.61429C8.22828 9.659 8.26238 9.71197 8.28506 9.77007C8.30775 9.82818 8.31855 9.89025 8.31683 9.9526V18.5766ZM6.77333 7.6566C6.5485 7.65492 6.3262 7.60897 6.11912 7.52137C5.91205 7.43377 5.72426 7.30624 5.56647 7.14607C5.40868 6.9859 5.28398 6.79621 5.1995 6.58785C5.11501 6.37949 5.0724 6.15652 5.07408 5.93169C5.07577 5.70685 5.12172 5.48455 5.20932 5.27748C5.29692 5.0704 5.42444 4.88261 5.58462 4.72482C5.74479 4.56703 5.93447 4.44233 6.14284 4.35785C6.3512 4.27337 6.57417 4.23075 6.799 4.23244C7.24527 4.24695 7.6682 4.43529 7.97755 4.75727C8.2869 5.07925 8.45817 5.50938 8.45482 5.95587C8.45147 6.40236 8.27377 6.82987 7.95962 7.14718C7.64548 7.46448 7.21977 7.64645 6.77333 7.65427M19.3932 18.5626C19.3926 18.6805 19.3463 18.7936 19.2641 18.878C19.1818 18.9624 19.07 19.0116 18.9522 19.0153H16.76C16.642 19.0116 16.53 18.9623 16.4477 18.8776C16.3654 18.7929 16.3192 18.6795 16.319 18.5614V14.5668C16.319 13.9706 16.501 11.9733 14.737 11.9733C13.3615 11.9733 13.0897 13.3733 13.0372 13.9963V18.6524C13.0372 18.7707 12.9912 18.8844 12.9089 18.9693C12.8266 19.0543 12.7144 19.1038 12.5962 19.1074H10.4693C10.3489 19.1071 10.2334 19.0591 10.1484 18.9738C10.0633 18.8885 10.0155 18.7729 10.0155 18.6524V9.9106C10.0191 9.79237 10.0687 9.68021 10.1536 9.59788C10.2386 9.51556 10.3522 9.46955 10.4705 9.4696H12.5962C12.7145 9.46955 12.8281 9.51556 12.913 9.59788C12.998 9.68021 13.0475 9.79237 13.0512 9.9106V10.6631C13.3615 10.2088 13.79 9.84791 14.2905 9.61929C14.7909 9.39066 15.3442 9.30301 15.8908 9.36577C19.4317 9.36577 19.4188 12.6733 19.4188 14.5539L19.3932 18.5626Z" fill="#EFEFEF"/>
</svg>
