<svg width="22" height="22" viewBox="0 0 22 22" fill="none" xmlns="http://www.w3.org/2000/svg">
<rect width="22" height="22" rx="11" fill="url(#paint0_linear_3989_116898)"/>
<path d="M11.6563 13.8438C11.6563 13.9735 11.6178 14.1004 11.5457 14.2083C11.4735 14.3163 11.3711 14.4004 11.2511 14.45C11.1312 14.4997 10.9993 14.5127 10.872 14.4874C10.7447 14.4621 10.6277 14.3996 10.536 14.3078C10.4442 14.216 10.3817 14.0991 10.3564 13.9718C10.331 13.8445 10.344 13.7125 10.3937 13.5926C10.4434 13.4727 10.5275 13.3702 10.6354 13.2981C10.7433 13.226 10.8702 13.1875 11 13.1875C11.1741 13.1875 11.341 13.2566 11.464 13.3797C11.5871 13.5028 11.6563 13.6697 11.6563 13.8438ZM11 7.9375C9.7936 7.9375 8.8125 8.8207 8.8125 9.90625V10.125C8.8125 10.241 8.8586 10.3523 8.94064 10.4344C9.02269 10.5164 9.13397 10.5625 9.25 10.5625C9.36603 10.5625 9.47731 10.5164 9.55936 10.4344C9.64141 10.3523 9.6875 10.241 9.6875 10.125V9.90625C9.6875 9.30469 10.2765 8.8125 11 8.8125C11.7235 8.8125 12.3125 9.30469 12.3125 9.90625C12.3125 10.5078 11.7235 11 11 11C10.884 11 10.7727 11.0461 10.6906 11.1281C10.6086 11.2102 10.5625 11.3215 10.5625 11.4375V11.875C10.5625 11.991 10.6086 12.1023 10.6906 12.1844C10.7727 12.2664 10.884 12.3125 11 12.3125C11.116 12.3125 11.2273 12.2664 11.3094 12.1844C11.3914 12.1023 11.4375 11.991 11.4375 11.875V11.8356C12.435 11.6524 13.1875 10.8567 13.1875 9.90625C13.1875 8.8207 12.2064 7.9375 11 7.9375ZM16.6875 11C16.6875 12.1249 16.3539 13.2245 15.729 14.1598C15.104 15.0951 14.2158 15.8241 13.1765 16.2546C12.1373 16.685 10.9937 16.7977 9.89043 16.5782C8.78716 16.3588 7.77374 15.8171 6.97833 15.0217C6.18292 14.2263 5.64124 13.2128 5.42179 12.1096C5.20233 11.0063 5.31496 9.86274 5.74544 8.82349C6.17591 7.78423 6.90489 6.89597 7.8402 6.27102C8.7755 5.64607 9.87512 5.3125 11 5.3125C12.5079 5.31409 13.9536 5.91382 15.0199 6.98009C16.0862 8.04636 16.6859 9.49207 16.6875 11ZM15.8125 11C15.8125 10.0482 15.5303 9.11773 15.0014 8.32632C14.4726 7.53491 13.721 6.91808 12.8417 6.55383C11.9623 6.18958 10.9947 6.09428 10.0611 6.27997C9.1276 6.46566 8.27009 6.92401 7.59705 7.59705C6.92401 8.27009 6.46566 9.12759 6.27997 10.0611C6.09428 10.9947 6.18959 11.9623 6.55383 12.8417C6.91808 13.721 7.53491 14.4726 8.32632 15.0014C9.11773 15.5303 10.0482 15.8125 11 15.8125C12.2759 15.8111 13.4992 15.3036 14.4014 14.4014C15.3036 13.4991 15.8111 12.2759 15.8125 11Z" fill="white"/>
<defs>
<linearGradient id="paint0_linear_3989_116898" x1="0" y1="11" x2="22" y2="11" gradientUnits="userSpaceOnUse">
<stop stop-color="#FF4203"/>
<stop offset="1" stop-color="#FE31A1"/>
</linearGradient>
</defs>
</svg>
