<svg width="31" height="31" viewBox="0 0 31 31" fill="none" xmlns="http://www.w3.org/2000/svg">
<path d="M11.15 30H19.85C27.1 30 30 27.1 30 19.85V11.15C30 3.9 27.1 1 19.85 1H11.15C3.9 1 1 3.9 1 11.15V19.85C1 27.1 3.9 30 11.15 30Z" stroke="white" stroke-width="1.45" stroke-linecap="round" stroke-linejoin="round"/>
<path d="M15.5008 20.5758C16.1672 20.5758 16.8272 20.4445 17.4429 20.1895C18.0586 19.9344 18.6181 19.5606 19.0893 19.0893C19.5606 18.6181 19.9344 18.0586 20.1895 17.4429C20.4445 16.8272 20.5758 16.1672 20.5758 15.5008C20.5758 14.8343 20.4445 14.1744 20.1895 13.5587C19.9344 12.9429 19.5606 12.3835 19.0893 11.9122C18.6181 11.441 18.0586 11.0671 17.4429 10.8121C16.8272 10.557 16.1672 10.4258 15.5008 10.4258C14.1548 10.4258 12.864 10.9605 11.9122 11.9122C10.9605 12.864 10.4258 14.1548 10.4258 15.5008C10.4258 16.8468 10.9605 18.1376 11.9122 19.0893C12.864 20.0411 14.1548 20.5758 15.5008 20.5758Z" stroke="white" stroke-width="1.45" stroke-linecap="round" stroke-linejoin="round"/>
<path d="M23.6719 8.25H23.6887" stroke="white" stroke-width="1.45" stroke-linecap="round" stroke-linejoin="round"/>
</svg>
