<svg width="24" height="25" viewBox="0 0 24 25" fill="none" xmlns="http://www.w3.org/2000/svg">
<path d="M13.1987 0.917969C14.5112 0.921469 15.1774 0.928469 15.7525 0.944802L15.9789 0.952969C16.2402 0.962302 16.498 0.973969 16.8095 0.987969C18.0509 1.0463 18.8979 1.2423 19.641 1.53047C20.411 1.8268 21.0597 2.22814 21.7084 2.87564C22.3018 3.45866 22.7609 4.16419 23.0535 4.94297C23.3417 5.68614 23.5377 6.53313 23.596 7.77563C23.61 8.08597 23.6217 8.3438 23.631 8.6063L23.638 8.83264C23.6555 9.40664 23.6625 10.0728 23.6649 11.3853L23.666 12.2556V13.784C23.6689 14.6349 23.6599 15.4859 23.6392 16.3366L23.6322 16.563C23.6229 16.8255 23.6112 17.0833 23.5972 17.3936C23.5389 18.6361 23.3405 19.482 23.0535 20.2263C22.7609 21.0051 22.3018 21.7106 21.7084 22.2936C21.1253 22.8871 20.4198 23.3462 19.641 23.6388C18.8979 23.927 18.0509 24.123 16.8095 24.1813L15.9789 24.2163L15.7525 24.2233C15.1774 24.2396 14.5112 24.2478 13.1987 24.2501L12.3284 24.2513H10.8012C9.94983 24.2543 9.09847 24.2454 8.24736 24.2245L8.02103 24.2175C7.74407 24.207 7.46718 24.1949 7.19036 24.1813C5.94903 24.123 5.10203 23.927 4.35769 23.6388C3.57933 23.346 2.87421 22.887 2.29153 22.2936C1.69763 21.7107 1.23816 21.0052 0.945195 20.2263C0.657028 19.4831 0.461028 18.6361 0.402695 17.3936L0.367695 16.563L0.361862 16.3366C0.340355 15.4859 0.330632 14.635 0.332695 13.784V11.3853C0.329466 10.5343 0.338022 9.68337 0.358362 8.83264L0.366528 8.6063C0.375862 8.3438 0.387528 8.08597 0.401528 7.77563C0.459862 6.53313 0.655861 5.6873 0.944028 4.94297C1.23767 4.16387 1.69796 3.45831 2.29269 2.87564C2.87504 2.28244 3.57975 1.82339 4.35769 1.53047C5.10203 1.2423 5.94786 1.0463 7.19036 0.987969C7.50069 0.973969 7.75969 0.962302 8.02103 0.952969L8.24736 0.945969C9.09809 0.92524 9.94906 0.916295 10.8 0.919135L13.1987 0.917969ZM11.9994 6.7513C10.4523 6.7513 8.96853 7.36588 7.87457 8.45985C6.78061 9.55381 6.16603 11.0375 6.16603 12.5846C6.16603 14.1317 6.78061 15.6155 7.87457 16.7094C8.96853 17.8034 10.4523 18.418 11.9994 18.418C13.5465 18.418 15.0302 17.8034 16.1242 16.7094C17.2181 15.6155 17.8327 14.1317 17.8327 12.5846C17.8327 11.0375 17.2181 9.55381 16.1242 8.45985C15.0302 7.36588 13.5465 6.7513 11.9994 6.7513ZM11.9994 9.08464C12.459 9.08456 12.9141 9.17501 13.3388 9.35083C13.7635 9.52665 14.1493 9.7844 14.4744 10.1093C14.7995 10.4343 15.0573 10.8201 15.2333 11.2447C15.4093 11.6693 15.4999 12.1244 15.4999 12.5841C15.5 13.0437 15.4096 13.4988 15.2337 13.9235C15.0579 14.3482 14.8002 14.734 14.4752 15.0591C14.1503 15.3842 13.7645 15.642 13.3399 15.818C12.9153 15.994 12.4602 16.0846 12.0005 16.0846C11.0723 16.0846 10.182 15.7159 9.52565 15.0595C8.86928 14.4031 8.50053 13.5129 8.50053 12.5846C8.50053 11.6564 8.86928 10.7661 9.52565 10.1098C10.182 9.45338 11.0723 9.08464 12.0005 9.08464M18.1255 5.0013C17.7388 5.0013 17.3678 5.15495 17.0943 5.42844C16.8208 5.70193 16.6672 6.07286 16.6672 6.45964C16.6672 6.84641 16.8208 7.21734 17.0943 7.49083C17.3678 7.76432 17.7388 7.91797 18.1255 7.91797C18.5123 7.91797 18.8832 7.76432 19.1567 7.49083C19.4302 7.21734 19.5839 6.84641 19.5839 6.45964C19.5839 6.07286 19.4302 5.70193 19.1567 5.42844C18.8832 5.15495 18.5123 5.0013 18.1255 5.0013Z" fill="#EFEFEF"/>
</svg>
