<svg width="14" height="14" viewBox="0 0 14 14" fill="none" xmlns="http://www.w3.org/2000/svg">
<path d="M8.75 3.646H9.625C11.4763 3.64601 12.9793 5.14825 12.9795 6.99951C12.9795 8.85092 11.4764 10.354 9.625 10.354H8.74414C8.66617 10.354 8.59882 10.2864 8.59863 10.2085C8.59863 10.1304 8.66606 10.062 8.74414 10.062H9.625C11.3144 10.062 12.6875 8.68892 12.6875 6.99951C12.6873 5.31025 11.3143 3.93703 9.625 3.93701H8.75C8.67192 3.93701 8.60449 3.86959 8.60449 3.7915C8.60449 3.71088 8.66861 3.646 8.75 3.646Z" fill="white" stroke="white" stroke-width="0.583333"/>
<path d="M5.24935 10.6457H4.37435C2.36185 10.6457 0.728516 9.01234 0.728516 6.99984C0.728516 4.98734 2.36185 3.354 4.37435 3.354H5.24935C5.48852 3.354 5.68685 3.55234 5.68685 3.7915C5.68685 4.03067 5.48852 4.229 5.24935 4.229H4.37435C2.84602 4.229 1.60352 5.4715 1.60352 6.99984C1.60352 8.52817 2.84602 9.77067 4.37435 9.77067H5.24935C5.48852 9.77067 5.68685 9.969 5.68685 10.2082C5.68685 10.4473 5.48852 10.6457 5.24935 10.6457Z" fill="white"/>
<path d="M9.33268 7.4375H4.66602C4.42685 7.4375 4.22852 7.23917 4.22852 7C4.22852 6.76083 4.42685 6.5625 4.66602 6.5625H9.33268C9.57185 6.5625 9.77018 6.76083 9.77018 7C9.77018 7.23917 9.57185 7.4375 9.33268 7.4375Z" fill="white"/>
</svg>
