<svg width="27" height="31" viewBox="0 0 27 31" fill="none" xmlns="http://www.w3.org/2000/svg">
<path d="M25.7537 10.4703C24.2255 3.74611 18.36 0.71875 13.2077 0.71875C13.2077 0.71875 13.2077 0.71875 13.1931 0.71875C8.05533 0.71875 2.17527 3.73155 0.647036 10.4558C-1.05585 17.9659 3.5434 24.3263 7.70602 28.3288C9.2488 29.8134 11.2282 30.5557 13.2077 30.5557C15.1871 30.5557 17.1665 29.8134 18.6947 28.3288C22.8574 24.3263 27.4566 17.9805 25.7537 10.4703ZM13.2077 17.7622C10.6752 17.7622 8.62296 15.71 8.62296 13.1775C8.62296 10.645 10.6752 8.59279 13.2077 8.59279C15.7402 8.59279 17.7924 10.645 17.7924 13.1775C17.7924 15.71 15.7402 17.7622 13.2077 17.7622Z" fill="white"/>
</svg>
