<svg width="143" height="63" viewBox="0 0 143 63" fill="none" xmlns="http://www.w3.org/2000/svg">
<g clip-path="url(#clip0_3543_19592)">
<path d="M24.7461 25.0355C24.7461 23.8461 24.9512 22.7903 25.365 21.8682C25.7788 20.9461 26.3482 20.168 27.0732 19.5373C27.7982 18.9066 28.6753 18.4267 29.7045 18.0976C30.7301 17.7685 31.8583 17.6074 33.0855 17.6074C34.5886 17.6074 35.7593 17.7651 36.5974 18.0805C37.4355 18.3958 38.0439 18.7352 38.4187 19.102C38.645 19.3453 38.8182 19.599 38.9458 19.8663C39.0696 20.1337 39.133 20.4491 39.133 20.8124C39.133 21.1758 39.0764 21.5186 38.9633 21.8339C38.8501 22.1493 38.7123 22.4304 38.5497 22.6703C38.3868 22.9137 38.2311 23.1194 38.0792 23.2908C37.927 23.4622 37.8176 23.5821 37.7397 23.6541C37.3117 23.4587 36.7991 23.2771 36.1976 23.1091C35.5964 22.9411 34.9315 22.8554 34.2066 22.8554C33.2552 22.8554 32.4454 23.1228 31.784 23.6575C31.1191 24.1923 30.7867 25.0767 30.7867 26.3175V36.6972H24.7461V25.0355Z" fill="#F4F4F4"/>
<path d="M41.875 13.1266C41.875 12.2045 42.1936 11.4264 42.8335 10.7957C43.4737 10.165 44.2659 9.84961 45.2209 9.84961C46.1722 9.84961 46.975 10.165 47.6259 10.7957C48.2764 11.4264 48.6018 12.2045 48.6018 13.1266C48.6018 14.0487 48.2764 14.82 47.6259 15.4404C46.975 16.0608 46.1722 16.3694 45.2209 16.3694C44.2693 16.3694 43.4737 16.0608 42.8335 15.4404C42.1936 14.82 41.875 14.0487 41.875 13.1266ZM42.2148 20.6987C42.2148 19.7526 42.5012 19.0842 43.0776 18.6969C43.6541 18.3095 44.4181 18.1141 45.3694 18.1141C46.045 18.1141 46.6602 18.193 47.212 18.3507C47.7637 18.5083 48.1138 18.6112 48.2623 18.6592V36.6862H42.2111V20.6987H42.2148Z" fill="#F4F4F4"/>
<path d="M58.4454 36.6892C57.6673 35.3558 56.9105 33.9812 56.1715 32.5758C55.4321 31.167 54.7638 29.8507 54.1626 28.6235C53.5615 27.3963 53.0591 26.3543 52.6596 25.4905C52.2597 24.6301 52.0087 24.0782 51.9096 23.8348C51.708 23.3481 51.4888 22.803 51.2519 22.1963C51.0149 21.5896 50.8945 21.0446 50.8945 20.5578C50.8945 19.8791 51.1459 19.3032 51.6445 18.8267C52.1466 18.3537 52.8965 18.1172 53.901 18.1172C54.7038 18.1172 55.3543 18.196 55.8567 18.3537C56.3587 18.5114 56.6454 18.6142 56.7195 18.6622C57.144 19.8517 57.5967 21.0549 58.074 22.2683C58.5479 23.4818 59.0078 24.6061 59.4464 25.6379C59.8847 26.6696 60.2773 27.5815 60.6309 28.3699C60.981 29.1583 61.2324 29.7136 61.3809 30.0289C61.5328 29.7136 61.7697 29.172 62.0952 28.4076C62.4206 27.6432 62.7776 26.7931 63.1668 25.8572C63.5557 24.9215 63.9411 23.9891 64.3304 23.0533C64.7192 22.1175 65.0519 21.3222 65.3276 20.6675C65.4761 20.3042 65.6458 19.9648 65.8334 19.646C66.021 19.3306 66.2473 19.0564 66.509 18.8267C66.7706 18.5971 67.0923 18.4189 67.4674 18.2989C67.8423 18.1789 68.3056 18.1172 68.8573 18.1172C69.3594 18.1172 69.8086 18.1652 70.2119 18.2646C70.6114 18.3606 70.9649 18.4703 71.2657 18.5937C71.5664 18.7171 71.8034 18.8302 71.98 18.9399C72.1569 19.0496 72.2667 19.1181 72.3195 19.1387C72.2204 19.574 71.98 20.239 71.6052 21.1234C71.2304 22.0112 70.7846 23.0224 70.2719 24.1639C69.7592 25.3054 69.2002 26.5017 68.5991 27.7528C67.9979 29.004 67.4071 30.2106 66.8344 31.3761C66.2579 32.5415 65.7202 33.5904 65.2182 34.5264C64.7158 35.462 64.3269 36.1818 64.0546 36.6925H58.4454V36.6892Z" fill="#F4F4F4"/>
<path d="M74 27.4003C74 25.9914 74.2757 24.6923 74.8275 23.5028C75.3792 22.3134 76.1361 21.2816 77.1014 20.4075C78.0671 19.5334 79.1881 18.8478 80.4648 18.3508C81.7415 17.8537 83.1208 17.6035 84.5991 17.6035C86.0528 17.6035 87.4249 17.8537 88.7122 18.3508C90.003 18.8478 91.1312 19.5334 92.0931 20.4075C93.0588 21.2816 93.8156 22.3134 94.3674 23.5028C94.9191 24.6923 95.1949 25.9914 95.1949 27.4003C95.1949 28.8091 94.9191 30.1082 94.3674 31.2977C93.8156 32.4872 93.0588 33.5189 92.0931 34.3932C91.1278 35.2672 89.9995 35.9528 88.7122 36.4498C87.4214 36.9467 86.049 37.1971 84.5991 37.1971C83.1208 37.1971 81.7415 36.9467 80.4648 36.4498C79.1881 35.9528 78.0671 35.2672 77.1014 34.3932C76.1361 33.5189 75.3792 32.4872 74.8275 31.2977C74.2757 30.1082 74 28.8091 74 27.4003ZM84.5957 31.9559C85.2216 31.9559 85.8052 31.8393 86.3426 31.6097C86.8803 31.38 87.3508 31.0646 87.7503 30.6636C88.1498 30.2625 88.4577 29.7826 88.6697 29.2239C88.8819 28.6651 88.9882 28.0584 88.9882 27.4037C88.9882 26.749 88.8819 26.1423 88.6697 25.5835C88.4577 25.0248 88.1498 24.5449 87.7503 24.1438C87.3508 23.7428 86.8803 23.4274 86.3426 23.1977C85.8052 22.9681 85.2216 22.8515 84.5957 22.8515C83.9448 22.8515 83.3543 22.9681 82.8307 23.1977C82.3039 23.4274 81.8407 23.7428 81.4408 24.1438C81.0413 24.5449 80.7337 25.0248 80.5214 25.5835C80.3091 26.1423 80.2032 26.749 80.2032 27.4037C80.2032 28.0584 80.3091 28.6651 80.5214 29.2239C80.7337 29.7826 81.0413 30.2625 81.4408 30.6636C81.8407 31.0646 82.3039 31.38 82.8307 31.6097C83.3578 31.8393 83.9448 31.9559 84.5957 31.9559Z" fill="#F4F4F4"/>
<path d="M104.437 36.6892C103.659 35.3558 102.903 33.9812 102.163 32.5758C101.424 31.167 100.756 29.8507 100.154 28.6235C99.5533 27.3963 99.0513 26.3543 98.6514 25.4905C98.2519 24.6301 98.0009 24.0782 97.9018 23.8348C97.7001 23.3481 97.481 22.803 97.244 22.1963C97.0071 21.5896 96.8867 21.0446 96.8867 20.5578C96.8867 19.8791 97.1377 19.3032 97.6363 18.8267C98.1387 18.3537 98.8884 18.1172 99.8928 18.1172C100.696 18.1172 101.346 18.196 101.849 18.3537C102.351 18.5114 102.637 18.6142 102.712 18.6622C103.136 19.8517 103.589 21.0549 104.066 22.2683C104.54 23.4818 105 24.6061 105.438 25.6379C105.877 26.6696 106.27 27.5815 106.623 28.3699C106.973 29.1583 107.224 29.7136 107.373 30.0289C107.525 29.7136 107.762 29.172 108.087 28.4076C108.412 27.6432 108.77 26.7931 109.159 25.8572C109.548 24.9215 109.933 23.9891 110.322 23.0533C110.711 22.1175 111.044 21.3222 111.32 20.6675C111.468 20.3042 111.638 19.9648 111.825 19.646C112.013 19.3306 112.239 19.0564 112.501 18.8267C112.762 18.5971 113.084 18.4189 113.459 18.2989C113.834 18.1789 114.297 18.1172 114.849 18.1172C115.352 18.1172 115.8 18.1652 116.204 18.2646C116.603 18.3606 116.957 18.4703 117.258 18.5937C117.558 18.7136 117.795 18.8302 117.972 18.9399C118.149 19.0496 118.259 19.1181 118.312 19.1387C118.213 19.574 117.972 20.239 117.597 21.1234C117.222 22.0112 116.777 23.0224 116.264 24.1639C115.751 25.3054 115.192 26.5017 114.591 27.7528C113.99 29.004 113.399 30.2106 112.826 31.3761C112.25 32.5415 111.712 33.5904 111.21 34.5264C110.708 35.462 110.319 36.1818 110.046 36.6925H104.437V36.6892Z" fill="#F4F4F4"/>
<path d="M119.996 27.4003C119.996 25.9914 120.272 24.6923 120.824 23.5028C121.375 22.3134 122.132 21.2816 123.098 20.4075C124.063 19.5334 125.184 18.8478 126.461 18.3508C127.738 17.8537 129.117 17.6035 130.595 17.6035C132.049 17.6035 133.421 17.8537 134.708 18.3508C135.999 18.8478 137.127 19.5334 138.089 20.4075C139.055 21.2816 139.812 22.3134 140.363 23.5028C140.915 24.6923 141.191 25.9914 141.191 27.4003C141.191 28.8091 140.915 30.1082 140.363 31.2977C139.812 32.4872 139.055 33.5189 138.089 34.3932C137.124 35.2672 135.996 35.9528 134.708 36.4498C133.418 36.9467 132.045 37.1971 130.595 37.1971C129.117 37.1971 127.738 36.9467 126.461 36.4498C125.184 35.9528 124.063 35.2672 123.098 34.3932C122.132 33.5189 121.375 32.4872 120.824 31.2977C120.272 30.1082 119.996 28.8091 119.996 27.4003ZM130.592 31.9559C131.218 31.9559 131.801 31.8393 132.339 31.6097C132.876 31.38 133.347 31.0646 133.746 30.6636C134.146 30.2625 134.453 29.7826 134.666 29.2239C134.878 28.6651 134.984 28.0584 134.984 27.4037C134.984 26.749 134.878 26.1423 134.666 25.5835C134.453 25.0248 134.146 24.5449 133.746 24.1438C133.347 23.7428 132.876 23.4274 132.339 23.1977C131.801 22.9681 131.218 22.8515 130.592 22.8515C129.941 22.8515 129.35 22.9681 128.827 23.1977C128.3 23.4274 127.837 23.7428 127.437 24.1438C127.037 24.5449 126.73 25.0248 126.518 25.5835C126.305 26.1423 126.199 26.749 126.199 27.4037C126.199 28.0584 126.305 28.6651 126.518 29.2239C126.73 29.7826 127.037 30.2625 127.437 30.6636C127.837 31.0646 128.3 31.38 128.827 31.6097C129.35 31.8393 129.941 31.9559 130.592 31.9559Z" fill="#F4F4F4"/>
<path d="M143.001 20.9078C139.376 13.4351 132.571 13.0992 129.155 12.5233C126.011 11.9954 122.449 11.3955 117.869 9.0783C110.648 5.42765 101.166 4.50215 91.8574 6.53829C85.7001 7.88542 81.5764 9.57536 78.6695 12.3862C78.1918 12.8489 75.5924 15.2724 75.2673 15.5638C71.6703 18.7654 69.4458 14.8714 69.4492 13.9493C69.7359 13.4968 70.0788 13.0306 70.4609 12.561C72.4872 10.0518 73.5307 8.93434 77.3574 6.24005C82.1316 2.87736 88.7981 1.59535 90.5241 1.21829C96.8051 -0.152848 109.067 -1.58225 120.653 4.27247C124.409 6.17152 127.217 6.64456 130.191 7.145C130.902 7.26497 131.616 7.38497 132.345 7.52552C138.541 8.71498 143.001 13.795 143.001 19.7046V20.9078Z" fill="#FF5D00"/>
<path d="M20.8061 34.9216V26.5645V24.5009V7.36171C20.6575 7.31373 20.3109 7.21088 19.7734 7.05322C19.2358 6.89555 17.234 6.41906 15.6602 8.61287C14.7726 9.85035 14.7973 11.4889 14.7973 12.4383V19.6094C14.3446 19.174 13.6621 18.7284 12.7496 18.2794C11.8336 17.8303 10.6772 17.6041 9.27312 17.6041C7.99638 17.6041 6.79394 17.8406 5.66575 18.3137C4.53756 18.7867 3.55439 19.4483 2.7162 20.2984C1.87802 21.1485 1.21313 22.1734 0.725075 23.3766C0.293607 24.4323 0.0106773 25.5978 6.73886e-05 26.8695C-0.0105425 28.0933 1.23435 28.323 1.84972 28.2887C3.70291 28.1824 4.78158 27.8739 5.70817 26.4548C6.1644 25.7589 6.18562 25.7383 6.18916 25.7349C6.39076 25.2584 7.0415 24.5935 7.40929 24.213C8.22274 23.3731 9.25543 22.955 10.5109 22.955C11.1369 22.955 11.7134 23.0715 12.2403 23.3011C12.7673 23.5308 13.2235 23.8462 13.6125 24.2473C14.0016 24.6483 14.3022 25.1213 14.5144 25.6664C14.7266 26.2114 14.8327 26.801 14.8327 27.4317C14.8327 28.7925 14.426 29.8586 13.6125 30.6367C12.7991 31.4148 11.7664 31.8022 10.5109 31.8022C9.25896 31.8022 8.22627 31.4011 7.40929 30.599C7.29612 30.4859 6.65245 29.9889 6.55345 29.8689C5.35098 28.9708 3.88682 28.1892 2.0407 28.4806C0.870078 28.6657 0.191045 29.8243 0.580076 30.9109C0.643733 31.0824 0.707394 31.2469 0.778126 31.408C1.30508 32.6215 2.03009 33.6532 2.95669 34.5034C3.88329 35.3535 4.97962 36.015 6.24574 36.4882C7.51186 36.961 8.88054 37.1976 10.3589 37.1976C12.1625 37.1976 13.8035 36.8823 15.2818 36.2516C15.5718 36.1283 15.8477 35.9909 16.1129 35.8434V35.8471C16.7 37.1118 19.7875 37.1668 20.997 36.6869C20.8061 36.1042 20.8061 34.9216 20.8061 34.9216Z" fill="#FF5D00"/>
<path d="M28.1443 57.6379C27.9889 57.6379 27.8608 57.5887 27.7603 57.4905C27.6596 57.3923 27.6094 57.267 27.6094 57.1152V47.692C27.6094 47.5402 27.6596 47.4148 27.7603 47.3166C27.8608 47.2185 27.9889 47.1692 28.1443 47.1692H30.6134C31.3998 47.1692 32.1177 47.2989 32.767 47.5579C33.4254 47.8082 33.9924 48.1702 34.4678 48.6437C34.9434 49.1085 35.3093 49.658 35.5651 50.2924C35.8305 50.9267 35.9629 51.6285 35.9629 52.3969C35.9629 53.1653 35.8305 53.8713 35.5651 54.5147C35.3093 55.1491 34.9434 55.7034 34.4678 56.1769C33.9924 56.6417 33.4254 57.0036 32.767 57.2626C32.1177 57.5129 31.3998 57.6379 30.6134 57.6379H28.1443ZM28.6793 56.6996H30.6134C31.4547 56.6996 32.1954 56.5163 32.8356 56.15C33.4848 55.7747 33.9924 55.2654 34.358 54.622C34.7239 53.9695 34.9067 53.2279 34.9067 52.3969C34.9067 51.5658 34.7239 50.8286 34.358 50.1852C33.9924 49.5327 33.4848 49.0233 32.8356 48.6571C32.1954 48.2908 31.4547 48.1075 30.6134 48.1075H28.6793V56.6996ZM38.9059 57.6379C38.7502 57.6379 38.6223 57.5887 38.5218 57.4905C38.421 57.3923 38.3709 57.267 38.3709 57.1152V47.692C38.3709 47.5402 38.421 47.4148 38.5218 47.3166C38.6223 47.2185 38.7502 47.1692 38.9059 47.1692H41.471C42.1383 47.1692 42.7329 47.3076 43.2542 47.5847C43.7754 47.8528 44.1821 48.2325 44.475 48.7241C44.7768 49.2066 44.9277 49.7653 44.9277 50.3996C44.9277 51.0072 44.7768 51.548 44.475 52.0215C44.1821 52.495 43.7754 52.866 43.2542 53.1341C42.7329 53.4022 42.1383 53.5362 41.471 53.5362H39.4409V57.1152C39.4409 57.267 39.3904 57.3923 39.29 57.4905C39.1892 57.5887 39.0612 57.6379 38.9059 57.6379ZM44.6396 57.6379C44.5206 57.6379 44.4246 57.6155 44.3516 57.5709C44.2874 57.5263 44.2281 57.4593 44.1732 57.3698L41.5396 53.2681L42.6095 53.0001L45.0648 56.8337C45.202 57.0481 45.2246 57.2358 45.1334 57.3966C45.0511 57.5575 44.8865 57.6379 44.6396 57.6379ZM39.4409 52.5309H41.471C41.9374 52.5309 42.3489 52.4414 42.7055 52.2628C43.0711 52.0752 43.3591 51.8205 43.5697 51.4988C43.7799 51.1771 43.8852 50.8108 43.8852 50.3996C43.8852 49.9616 43.7799 49.5776 43.5697 49.2469C43.3591 48.9074 43.0711 48.6437 42.7055 48.456C42.3489 48.2683 41.9374 48.1745 41.471 48.1745H39.4409V52.5309ZM47.5908 57.6379C47.4355 57.6379 47.3076 57.5887 47.2068 57.4905C47.1063 57.3923 47.0559 57.267 47.0559 57.1152V47.692C47.0559 47.5402 47.1063 47.4148 47.2068 47.3166C47.3076 47.2185 47.4355 47.1692 47.5908 47.1692C47.7465 47.1692 47.8744 47.2185 47.9749 47.3166C48.0757 47.4148 48.1258 47.5402 48.1258 47.692V57.1152C48.1258 57.267 48.0757 57.3923 47.9749 57.4905C47.8744 57.5887 47.7465 57.6379 47.5908 57.6379ZM54.6321 57.6379C54.4034 57.6379 54.2388 57.5263 54.1383 57.3028L50.0644 47.9869C49.9639 47.7365 49.9546 47.5402 50.0369 47.3971C50.1285 47.2453 50.2838 47.1692 50.5033 47.1692C50.732 47.1692 50.8966 47.2808 50.9971 47.5043L54.783 56.3511H54.4812L58.2534 47.5311C58.3083 47.3971 58.3769 47.3032 58.4592 47.2496C58.5415 47.196 58.6512 47.1692 58.7884 47.1692C58.9986 47.1692 59.1406 47.2496 59.2136 47.4105C59.2867 47.5623 59.2822 47.7365 59.1999 47.9332L55.1122 57.3028C55.0574 57.4278 54.9888 57.5173 54.9065 57.5709C54.8242 57.6155 54.7326 57.6379 54.6321 57.6379ZM61.6391 57.6379C61.4834 57.6379 61.3555 57.5887 61.255 57.4905C61.1542 57.3923 61.1042 57.267 61.1042 57.1152V47.692C61.1042 47.5402 61.1542 47.4148 61.255 47.3166C61.3555 47.2185 61.4834 47.1692 61.6391 47.1692H68.0724C68.2185 47.1692 68.3419 47.2185 68.4428 47.3166C68.5525 47.4061 68.6074 47.5268 68.6074 47.6786C68.6074 47.8126 68.5525 47.9289 68.4428 48.0271C68.3419 48.1253 68.2185 48.1745 68.0724 48.1745H62.1741V51.8741H66.4675C66.6229 51.8741 66.7508 51.9234 66.8516 52.0215C66.9521 52.1197 67.0025 52.2404 67.0025 52.3835C67.0025 52.5265 66.9521 52.6472 66.8516 52.7454C66.7508 52.8436 66.6229 52.8928 66.4675 52.8928H62.1741V56.6326H68.0724C68.2185 56.6326 68.3419 56.6819 68.4428 56.7801C68.5525 56.8782 68.6074 56.9945 68.6074 57.1286C68.6074 57.2804 68.5525 57.4057 68.4428 57.5039C68.3419 57.5934 68.2185 57.6379 68.0724 57.6379H61.6391ZM75.5667 57.6379C75.4114 57.6379 75.2831 57.5887 75.1826 57.4905C75.0822 57.3923 75.0317 57.267 75.0317 57.1152V47.692C75.0317 47.5402 75.0822 47.4148 75.1826 47.3166C75.2831 47.2185 75.4114 47.1692 75.5667 47.1692C75.722 47.1692 75.8503 47.2185 75.9508 47.3166C76.0513 47.4148 76.1017 47.5402 76.1017 47.692V57.1152C76.1017 57.267 76.0513 57.3923 75.9508 57.4905C75.8503 57.5887 75.722 57.6379 75.5667 57.6379ZM82.1691 57.6379C82.0226 57.6379 81.8947 57.5887 81.785 57.4905C81.6842 57.3832 81.6341 57.2582 81.6341 57.1152V47.1692H82.704V57.1152C82.704 57.2582 82.6536 57.3832 82.5531 57.4905C82.4523 57.5887 82.3244 57.6379 82.1691 57.6379ZM78.3832 48.1209C78.2367 48.1209 78.1177 48.0763 78.0265 47.9869C77.935 47.8974 77.8893 47.7858 77.8893 47.6518C77.8893 47.5087 77.935 47.3927 78.0265 47.3032C78.1177 47.2138 78.2367 47.1692 78.3832 47.1692H85.9687C86.1148 47.1692 86.2337 47.2138 86.3253 47.3032C86.4165 47.3927 86.4625 47.5087 86.4625 47.6518C86.4625 47.7858 86.4165 47.8974 86.3253 47.9869C86.2337 48.0763 86.1148 48.1209 85.9687 48.1209H78.3832ZM93.0086 57.6379C92.8532 57.6379 92.7253 57.5887 92.6245 57.4905C92.524 57.3923 92.4736 57.267 92.4736 57.1152V47.692C92.4736 47.5402 92.524 47.4148 92.6245 47.3166C92.7253 47.2185 92.8532 47.1692 93.0086 47.1692H99.4419C99.5883 47.1692 99.7118 47.2185 99.8122 47.3166C99.922 47.4061 99.9768 47.5268 99.9768 47.6786C99.9768 47.8126 99.922 47.9289 99.8122 48.0271C99.7118 48.1253 99.5883 48.1745 99.4419 48.1745H93.5436V51.8741H97.837C97.9927 51.8741 98.1206 51.9234 98.2211 52.0215C98.3219 52.1197 98.372 52.2404 98.372 52.3835C98.372 52.5265 98.3219 52.6472 98.2211 52.7454C98.1206 52.8436 97.9927 52.8928 97.837 52.8928H93.5436V56.6326H99.4419C99.5883 56.6326 99.7118 56.6819 99.8122 56.7801C99.922 56.8782 99.9768 56.9945 99.9768 57.1286C99.9768 57.2804 99.922 57.4057 99.8122 57.5039C99.7118 57.5934 99.5883 57.6379 99.4419 57.6379H93.0086ZM101.587 57.6379C101.377 57.6379 101.226 57.5531 101.135 57.3832C101.043 57.2133 101.034 57.0481 101.107 56.8873L105.14 47.5311C105.24 47.2898 105.414 47.1692 105.661 47.1692C105.899 47.1692 106.068 47.2898 106.169 47.5311L110.215 56.9007C110.298 57.0706 110.284 57.2358 110.174 57.3966C110.073 57.5575 109.927 57.6379 109.735 57.6379C109.625 57.6379 109.525 57.6111 109.433 57.5575C109.351 57.5039 109.282 57.4235 109.228 57.3162L105.455 48.3756H105.881L102.081 57.3162C102.035 57.4235 101.966 57.5039 101.875 57.5575C101.793 57.6111 101.697 57.6379 101.587 57.6379ZM102.493 55.1447L102.904 54.2466H108.473L108.885 55.1447H102.493ZM115.32 57.772C114.734 57.772 114.19 57.6915 113.687 57.5307C113.194 57.3608 112.764 57.1242 112.398 56.8203C112.032 56.5163 111.753 56.1635 111.561 55.7613C111.488 55.6182 111.483 55.4889 111.547 55.3726C111.621 55.2476 111.74 55.1625 111.904 55.1179C112.032 55.0821 112.156 55.0955 112.274 55.1581C112.402 55.2208 112.498 55.3146 112.563 55.4396C112.7 55.6987 112.901 55.9312 113.166 56.1366C113.431 56.3421 113.747 56.5029 114.113 56.6192C114.478 56.7264 114.881 56.7801 115.32 56.7801C115.804 56.7801 116.234 56.704 116.609 56.5522C116.984 56.3913 117.276 56.1635 117.487 55.8686C117.706 55.5646 117.816 55.1983 117.816 54.7694C117.816 54.2242 117.61 53.755 117.199 53.362C116.787 52.9689 116.143 52.7186 115.265 52.6113C114.195 52.4863 113.358 52.1646 112.755 51.6462C112.151 51.1191 111.849 50.4757 111.849 49.716C111.849 49.1708 111.995 48.6973 112.288 48.2952C112.59 47.893 113.002 47.5847 113.523 47.3703C114.044 47.1467 114.643 47.0352 115.32 47.0352C115.822 47.0352 116.28 47.1156 116.691 47.2764C117.103 47.4282 117.46 47.634 117.761 47.893C118.072 48.1434 118.324 48.4201 118.516 48.7241C118.607 48.8672 118.634 49.0056 118.598 49.1396C118.571 49.2737 118.493 49.3765 118.365 49.4479C118.228 49.5106 118.086 49.5193 117.94 49.4747C117.802 49.4302 117.697 49.345 117.624 49.2201C117.487 49.0146 117.313 48.8223 117.103 48.6437C116.902 48.456 116.655 48.3086 116.362 48.2013C116.069 48.0941 115.717 48.0361 115.306 48.0271C114.583 48.0271 114.003 48.1789 113.564 48.4828C113.125 48.7777 112.905 49.211 112.905 49.783C112.905 50.087 112.988 50.3685 113.152 50.6275C113.317 50.8778 113.587 51.0966 113.962 51.2843C114.346 51.4629 114.858 51.597 115.498 51.6864C116.641 51.8473 117.487 52.1914 118.036 52.7186C118.593 53.237 118.872 53.9159 118.872 54.756C118.872 55.2386 118.781 55.6675 118.598 56.0428C118.424 56.4181 118.173 56.7355 117.844 56.9945C117.523 57.2448 117.144 57.4369 116.705 57.5709C116.275 57.7049 115.813 57.772 115.32 57.772ZM123.973 57.6379C123.826 57.6379 123.698 57.5887 123.589 57.4905C123.488 57.3832 123.438 57.2582 123.438 57.1152V53.7641L119.707 47.9869C119.615 47.8528 119.579 47.7231 119.597 47.5981C119.624 47.4731 119.684 47.3703 119.775 47.2898C119.867 47.2094 119.981 47.1692 120.118 47.1692C120.228 47.1692 120.315 47.1917 120.379 47.2362C120.452 47.2808 120.516 47.3435 120.571 47.4239L124.274 53.2547H123.698L127.388 47.4507C127.452 47.3525 127.521 47.2808 127.594 47.2362C127.676 47.1917 127.772 47.1692 127.882 47.1692C128.01 47.1692 128.115 47.2138 128.198 47.3032C128.289 47.3837 128.339 47.4865 128.348 47.6115C128.367 47.7365 128.335 47.8619 128.252 47.9869L124.508 53.7641V57.1152C124.508 57.2582 124.453 57.3832 124.343 57.4905C124.243 57.5887 124.119 57.6379 123.973 57.6379Z" fill="#FF5D00"/>
</g>
<defs>
<clipPath id="clip0_3543_19592">
<rect width="143" height="63" fill="white"/>
</clipPath>
</defs>
</svg>
