<svg width="74" height="14" viewBox="0 0 74 14" fill="none" xmlns="http://www.w3.org/2000/svg">
<path d="M6.58391 1.28058C6.71488 0.877511 7.28512 0.877511 7.41609 1.28058L8.47337 4.53458C8.53194 4.71484 8.69992 4.83688 8.88946 4.83688H12.3109C12.7347 4.83688 12.9109 5.37921 12.5681 5.62833L9.80006 7.6394C9.64672 7.75081 9.58255 7.94828 9.64112 8.12854L10.6984 11.3825C10.8294 11.7856 10.368 12.1208 10.0252 11.8717L7.25716 9.8606C7.10382 9.74919 6.89618 9.74919 6.74284 9.8606L3.97483 11.8717C3.63196 12.1208 3.17062 11.7856 3.30159 11.3825L4.35888 8.12854C4.41745 7.94828 4.35328 7.75081 4.19994 7.6394L1.43193 5.62833C1.08906 5.37921 1.26527 4.83688 1.68909 4.83688H5.11054C5.30008 4.83688 5.46806 4.71484 5.52663 4.53458L6.58391 1.28058Z" fill="url(#paint0_linear_3715_22936)"/>
<path d="M21.4589 1.28058C21.5899 0.877511 22.1601 0.877511 22.2911 1.28058L23.3484 4.53458C23.4069 4.71484 23.5749 4.83688 23.7645 4.83688H27.1859C27.6097 4.83688 27.7859 5.37921 27.4431 5.62833L24.6751 7.6394C24.5217 7.75081 24.4576 7.94828 24.5161 8.12854L25.5734 11.3825C25.7044 11.7856 25.243 12.1208 24.9002 11.8717L22.1322 9.8606C21.9788 9.74919 21.7712 9.74919 21.6178 9.8606L18.8498 11.8717C18.507 12.1208 18.0456 11.7856 18.1766 11.3825L19.2339 8.12854C19.2924 7.94828 19.2283 7.75081 19.0749 7.6394L16.3069 5.62833C15.9641 5.37921 16.1403 4.83688 16.5641 4.83688H19.9855C20.1751 4.83688 20.3431 4.71484 20.4016 4.53458L21.4589 1.28058Z" fill="url(#paint1_linear_3715_22936)"/>
<path d="M36.3339 1.28058C36.4649 0.877511 37.0351 0.877511 37.1661 1.28058L38.2234 4.53458C38.2819 4.71484 38.4499 4.83688 38.6395 4.83688H42.0609C42.4847 4.83688 42.6609 5.37921 42.3181 5.62833L39.5501 7.6394C39.3967 7.75081 39.3326 7.94828 39.3911 8.12854L40.4484 11.3825C40.5794 11.7856 40.118 12.1208 39.7752 11.8717L37.0072 9.8606C36.8538 9.74919 36.6462 9.74919 36.4928 9.8606L33.7248 11.8717C33.382 12.1208 32.9206 11.7856 33.0516 11.3825L34.1089 8.12854C34.1674 7.94828 34.1033 7.75081 33.9499 7.6394L31.1819 5.62833C30.8391 5.37921 31.0153 4.83688 31.4391 4.83688H34.8605C35.0501 4.83688 35.2181 4.71484 35.2766 4.53458L36.3339 1.28058Z" fill="url(#paint2_linear_3715_22936)"/>
<path d="M51.2089 1.28058C51.3399 0.877511 51.9101 0.877511 52.0411 1.28058L53.0984 4.53458C53.1569 4.71484 53.3249 4.83688 53.5145 4.83688H56.9359C57.3597 4.83688 57.5359 5.37921 57.1931 5.62833L54.4251 7.6394C54.2717 7.75081 54.2076 7.94828 54.2661 8.12854L55.3234 11.3825C55.4544 11.7856 54.993 12.1208 54.6502 11.8717L51.8822 9.8606C51.7288 9.74919 51.5212 9.74919 51.3678 9.8606L48.5998 11.8717C48.257 12.1208 47.7956 11.7856 47.9266 11.3825L48.9839 8.12854C49.0424 7.94828 48.9783 7.75081 48.8249 7.6394L46.0569 5.62833C45.7141 5.37921 45.8903 4.83688 46.3141 4.83688H49.7355C49.9251 4.83688 50.0931 4.71484 50.1516 4.53458L51.2089 1.28058Z" fill="url(#paint3_linear_3715_22936)"/>
<path d="M66.0839 1.28058C66.2149 0.877511 66.7851 0.877511 66.9161 1.28058L67.9734 4.53458C68.0319 4.71484 68.1999 4.83688 68.3895 4.83688H71.8109C72.2347 4.83688 72.4109 5.37921 72.0681 5.62833L69.3001 7.6394C69.1467 7.75081 69.0826 7.94828 69.1411 8.12854L70.1984 11.3825C70.3294 11.7856 69.868 12.1208 69.5252 11.8717L66.7572 9.8606C66.6038 9.74919 66.3962 9.74919 66.2428 9.8606L63.4748 11.8717C63.132 12.1208 62.6706 11.7856 62.8016 11.3825L63.8589 8.12854C63.9174 7.94828 63.8533 7.75081 63.6999 7.6394L60.9319 5.62833C60.5891 5.37921 60.7653 4.83688 61.1891 4.83688H64.6105C64.8001 4.83688 64.9681 4.71484 65.0266 4.53458L66.0839 1.28058Z" fill="url(#paint4_linear_3715_22936)"/>
<defs>
<linearGradient id="paint0_linear_3715_22936" x1="0" y1="7" x2="14" y2="7" gradientUnits="userSpaceOnUse">
<stop stop-color="#FF4203"/>
<stop offset="1" stop-color="#FE31A1"/>
</linearGradient>
<linearGradient id="paint1_linear_3715_22936" x1="14.875" y1="7" x2="28.875" y2="7" gradientUnits="userSpaceOnUse">
<stop stop-color="#FF4203"/>
<stop offset="1" stop-color="#FE31A1"/>
</linearGradient>
<linearGradient id="paint2_linear_3715_22936" x1="29.75" y1="7" x2="43.75" y2="7" gradientUnits="userSpaceOnUse">
<stop stop-color="#FF4203"/>
<stop offset="1" stop-color="#FE31A1"/>
</linearGradient>
<linearGradient id="paint3_linear_3715_22936" x1="44.625" y1="7" x2="58.625" y2="7" gradientUnits="userSpaceOnUse">
<stop stop-color="#FF4203"/>
<stop offset="1" stop-color="#FE31A1"/>
</linearGradient>
<linearGradient id="paint4_linear_3715_22936" x1="59.5" y1="7" x2="73.5" y2="7" gradientUnits="userSpaceOnUse">
<stop stop-color="#FF4203"/>
<stop offset="1" stop-color="#FE31A1"/>
</linearGradient>
</defs>
</svg>
