<svg width="25" height="24" viewBox="0 0 25 24" fill="none" xmlns="http://www.w3.org/2000/svg">
<path fill-rule="evenodd" clip-rule="evenodd" d="M12.5 22.5C18.299 22.5 23 17.799 23 12C23 6.20101 18.299 1.5 12.5 1.5C6.70101 1.5 2 6.20101 2 12C2 17.799 6.70101 22.5 12.5 22.5ZM16.7219 6.8115C17.2591 6.57566 17.8334 7.05249 17.7399 7.65659L16.3564 16.5946C16.2723 17.1379 15.6938 17.4212 15.2442 17.1392L11.2355 14.6254C10.8177 14.3634 10.7488 13.7566 11.0961 13.3985L14.6766 9.70697C14.8047 9.57485 14.6412 9.36157 14.4912 9.4652L9.51709 12.9017C9.14939 13.1558 8.69344 13.2251 8.27236 13.091L6.0661 12.3884C5.6666 12.2612 5.63842 11.6778 6.02361 11.5086L16.7219 6.8115Z" fill="#F2F2F2"/>
</svg>
