<svg width="26" height="19" viewBox="0 0 26 19" fill="none" xmlns="http://www.w3.org/2000/svg">
<path fill-rule="evenodd" clip-rule="evenodd" d="M4.20141 1.1102C2.46845 1.19606 1.07641 2.55298 0.963943 4.28441C0.856193 5.94325 0.75 7.98439 0.75 9.58594C0.75 11.1875 0.856193 13.2286 0.963943 14.8875C1.07641 16.6189 2.46845 17.9758 4.20141 18.0617C6.71084 18.186 10.2975 18.3359 13 18.3359C15.7025 18.3359 19.2892 18.186 21.7986 18.0617C23.5315 17.9758 24.9236 16.6189 25.0361 14.8875C25.1438 13.2286 25.25 11.1875 25.25 9.58594C25.25 7.98439 25.1438 5.94325 25.0361 4.28441C24.9236 2.55298 23.5315 1.19606 21.7986 1.1102C19.2892 0.985879 15.7025 0.835938 13 0.835938C10.2975 0.835938 6.71084 0.985879 4.20141 1.1102ZM17.375 9.58594L10.375 13.0859V6.08594L17.375 9.58594Z" fill="#EFEFEF"/>
</svg>
